<svg width="24" height="24" viewBox="0 0 24 24" fill="none" xmlns="http://www.w3.org/2000/svg">
<g id="maki:casino">
<path id="Vector" d="M13.5992 16.0001C14.1029 16.6717 14.8052 17.1678 15.6065 17.4182C16.4079 17.6685 17.2677 17.6603 18.0641 17.3948C18.8606 17.1293 19.5533 16.62 20.0442 15.9389C20.5351 15.2579 20.7992 14.4396 20.7992 13.6001C20.7992 12.6977 20.4888 11.8737 19.9848 11.2049L19.9992 11.2001L11.9992 1.6001L3.99922 11.2001L4.01362 11.2049C3.48788 11.8929 3.20185 12.7342 3.19922 13.6001C3.19922 14.4396 3.46337 15.2579 3.95425 15.9389C4.44513 16.62 5.13786 17.1293 5.93431 17.3948C6.73076 17.6603 7.59055 17.6685 8.39189 17.4182C9.19323 17.1678 9.8955 16.6717 10.3992 16.0001L11.1992 14.9345V18.4001C11.1992 20.8001 7.19922 20.8001 7.19922 20.8001C6.98705 20.8001 6.78356 20.8844 6.63353 21.0344C6.4835 21.1844 6.39922 21.3879 6.39922 21.6001C6.39922 21.8123 6.4835 22.0158 6.63353 22.1658C6.78356 22.3158 6.98705 22.4001 7.19922 22.4001H16.7992C17.0114 22.4001 17.2149 22.3158 17.3649 22.1658C17.5149 22.0158 17.5992 21.8123 17.5992 21.6001C17.5992 21.3879 17.5149 21.1844 17.3649 21.0344C17.2149 20.8844 17.0114 20.8001 16.7992 20.8001C16.7992 20.8001 12.7992 20.8001 12.7992 18.4001V14.9345L13.5992 16.0001Z" fill="#F09A06"/>
</g>
</svg>
