<svg width="31" height="39" viewBox="0 0 31 39" fill="none" xmlns="http://www.w3.org/2000/svg">
<path d="M27.6499 17.4255C27.1571 16.788 26.5572 16.2355 26.0002 15.6829C24.5647 14.4079 22.9364 13.4941 21.5653 12.1553C18.373 9.05276 17.666 3.93136 19.7013 0C17.666 0.488764 15.8877 1.5938 14.3666 2.80508C8.8176 7.22521 6.63228 15.0242 9.24609 21.7181C9.33179 21.9306 9.41749 22.1431 9.41749 22.4194C9.41749 22.8869 9.09612 23.3119 8.66763 23.4819C8.17486 23.6944 7.66067 23.5669 7.2536 23.2269C7.13128 23.1266 7.02946 23.004 6.95365 22.8657C4.53267 19.8268 4.14702 15.4704 5.7753 11.9853C2.19738 14.8754 0.247739 19.7631 0.52626 24.3744C0.654808 25.437 0.783355 26.4995 1.14757 27.562C1.44752 28.8371 2.02599 30.1121 2.66872 31.2384C4.98259 34.9147 8.989 37.5498 13.2954 38.0811C17.8802 38.6549 22.7865 37.8261 26.3001 34.681C30.2208 31.1534 31.592 25.5007 29.5781 20.6556L29.2996 20.1031C28.8496 19.1255 27.6499 17.4255 27.6499 17.4255ZM20.8797 30.8134C20.2798 31.3234 19.2943 31.8759 18.523 32.0884C16.1234 32.9384 13.7238 31.7484 12.3098 30.3459C14.8593 29.7508 16.3805 27.8808 16.8304 25.9895C17.1946 24.2894 16.509 22.8869 16.2305 21.2506C15.9734 19.6781 16.0163 18.3393 16.5947 16.873C17.0018 17.6805 17.4303 18.488 17.9445 19.1255C19.5942 21.2506 22.1866 22.1856 22.7436 25.0757C22.8293 25.3732 22.8722 25.6707 22.8722 25.9895C22.9364 27.732 22.1652 29.6446 20.8797 30.8134Z" fill="#F09A06"/>
</svg>
