<svg width="30" height="30" viewBox="0 0 30 30" fill="none" xmlns="http://www.w3.org/2000/svg">
<path d="M0 24.6429V8.57143H8.57143V0H24.6429C26.0637 0 27.4263 0.564412 28.4309 1.56907C29.4356 2.57373 30 3.93634 30 5.35714V24.6429C30 26.0637 29.4356 27.4263 28.4309 28.4309C27.4263 29.4356 26.0637 30 24.6429 30H5.35714C3.93634 30 2.57373 29.4356 1.56907 28.4309C0.564412 27.4263 0 26.0637 0 24.6429ZM10.7143 2.14286V8.57143H19.2857V2.14286H10.7143ZM21.4286 2.14286V8.57143H27.8571V5.35714C27.8571 4.50466 27.5185 3.68709 26.9157 3.0843C26.3129 2.4815 25.4953 2.14286 24.6429 2.14286H21.4286ZM27.8571 10.7143H21.4286V19.2857H27.8571V10.7143ZM27.8571 21.4286H21.4286V27.8571H24.6429C25.4953 27.8571 26.3129 27.5185 26.9157 26.9157C27.5185 26.3129 27.8571 25.4953 27.8571 24.6429V21.4286ZM19.2857 27.8571V21.4286H10.7143V27.8571H19.2857ZM8.57143 27.8571V21.4286H2.14286V24.6429C2.14286 25.4953 2.4815 26.3129 3.0843 26.9157C3.68709 27.5185 4.50466 27.8571 5.35714 27.8571H8.57143ZM2.14286 19.2857H8.57143V10.7143H2.14286V19.2857ZM19.2857 10.7143H10.7143V19.2857H19.2857V10.7143Z" fill="#F09A06"/>
</svg>
